<svg width="13" height="13" viewBox="0 0 13 13" fill="none" xmlns="http://www.w3.org/2000/svg">
<path d="M6.5 0C2.91008 0 0 2.91008 0 6.5C0 10.0899 2.91008 13 6.5 13C10.0899 13 13 10.0899 13 6.5C13 2.91008 10.0899 0 6.5 0ZM10.4182 5.62982L8.72752 7.29546L9.11667 9.63669C9.13858 9.76819 9.08406 9.90076 8.97662 9.97933C8.91515 10.0237 8.84245 10.0467 8.76976 10.0467C8.71417 10.0467 8.65857 10.0339 8.60779 10.0071L6.50111 8.91346L4.39442 10.0071C4.27629 10.0686 4.13358 10.0579 4.02506 9.97933C3.91708 9.90076 3.86309 9.76819 3.88502 9.6367L4.27417 7.29546L2.58348 5.62982C2.48834 5.53628 2.45466 5.39677 2.49582 5.27008C2.53698 5.14339 2.64603 5.05038 2.77806 5.0306L5.12462 4.67728L6.18622 2.55458C6.24609 2.43538 6.36796 2.36001 6.50106 2.36001C6.6347 2.36001 6.75658 2.43538 6.81591 2.55458L7.8775 4.67728L10.2241 5.0306C10.3561 5.05038 10.4651 5.14286 10.5063 5.27008C10.5475 5.39676 10.5138 5.53628 10.4186 5.62982L10.4182 5.62982Z" fill="#F9BA0D"/>
</svg>
